<svg viewBox="0 0 961 530" fill="none" xmlns="http://www.w3.org/2000/svg"><g clip-path="url(#clip0)"><path d="M12.4-41.6L608.5 303c17.5 7.8 24.7 28.7 15.6 45.6-9.3 17.4-31.7 22.7-47.8 11.4L3.8-28.3C-1-31.7-.4-35.7 1-38.6c1.5-3 5.1-5.7 11.4-3z" fill="url(#paint0_linear)"/><path d="M437.3 116.6c63.2 103 76.1 153.6 122.9 228.2 10.3 16.4 31.5 24.5 49 18.7 17.9-5.9 29-24.5 21-47.6L564.6 72.6C547.9 34.5 500.4 14 463.2 28.8c-35.1 14-46.8 53.7-25.9 87.8z" fill="url(#paint1_linear)"/><path d="M442.9 41.4c23.7-25.9 62.5-30 96-4.8L1083 431.9c45.5 35.4 53.3 97.7 17.1 137.1-36.3 39.3-101.8 39.7-144.2.9L450.3 132.8c-27.7-25.4-30.9-65.6-7.4-91.4z" fill="url(#paint2_linear)"/><path d="M614.6 2.2l336 549.9c27.4 44.6 84.3 61.2 131.3 38.2 46.9-22.9 68.9-77.6 50.9-126.6L910.9-141.5c-33.4-90.9-137.3-133.9-225.1-93-89.7 41.8-122.9 152.4-71.2 236.7z" fill="url(#paint3_linear)"/></g><defs><linearGradient id="paint0_linear" x1="481.619" y1="376.196" x2="356.319" y2="203.319" gradientUnits="userSpaceOnUse"><stop stop-color="#2DD3FF"/><stop offset="1" stop-color="#1CEEBD"/></linearGradient><linearGradient id="paint1_linear" x1="558.938" y1="438.623" x2="519.656" y2="124.732" gradientUnits="userSpaceOnUse"><stop stop-color="#2ED3FF"/><stop offset="1" stop-color="#56AAFF"/></linearGradient><linearGradient id="paint2_linear" x1="791.002" y1="592.784" x2="760.002" y2="14.3" gradientUnits="userSpaceOnUse"><stop stop-color="#7686FE"/><stop offset="1" stop-color="#53ACFF"/></linearGradient><linearGradient id="paint3_linear" x1="1261.17" y1="576.188" x2="879.045" y2="138.847" gradientUnits="userSpaceOnUse"><stop stop-color="#6C90FE"/><stop offset="1" stop-color="#995FFD"/></linearGradient><clipPath id="clip0"><path fill="#fff" transform="translate(0 -250)" d="M0 0h1137.1v850.6H0z"/></clipPath></defs></svg>